<svg width="40" height="40" viewBox="0 0 40 40" fill="none" xmlns="http://www.w3.org/2000/svg">
<rect width="40" height="40" rx="20" fill="#FF3E79"/>
<path fill-rule="evenodd" clip-rule="evenodd" d="M12.7601 23.25L15.3001 22.96C15.9101 22.89 16.5101 23.1 16.9401 23.53L18.7801 25.37C21.6101 23.93 23.9301 21.62 25.3701 18.78L23.5201 16.93C23.0901 16.5 22.8801 15.9 22.9501 15.29L23.2401 12.77C23.3601 11.76 24.2101 11 25.2301 11H26.9601C28.0901 11 29.0301 11.94 28.9601 13.07C28.4301 21.61 21.6001 28.43 13.0701 28.96C11.9401 29.03 11.0001 28.09 11.0001 26.96V25.23C10.9901 24.22 11.7501 23.37 12.7601 23.25Z" fill="white"/>
</svg>
