<svg width="24" height="24" viewBox="0 0 24 24" fill="none" xmlns="http://www.w3.org/2000/svg">
<path fill-rule="evenodd" clip-rule="evenodd" d="M14.5 7.50008L12 10.0001L9.49995 7.50008C9.22381 7.22393 8.7761 7.22393 8.49995 7.50008C8.22381 7.77622 8.22381 8.22393 8.49995 8.50008L11.2928 11.293C11.6834 11.6835 12.3165 11.6835 12.7071 11.293L15.5 8.50008C15.7761 8.22393 15.7761 7.77622 15.5 7.50008C15.2238 7.22393 14.7761 7.22393 14.5 7.50008ZM14.5 13.5001L12 16.0001L9.49995 13.5001C9.22381 13.2239 8.7761 13.2239 8.49995 13.5001C8.22381 13.7762 8.22381 14.2239 8.49995 14.5001L11.2928 17.293C11.6834 17.6835 12.3165 17.6835 12.7071 17.293L15.5 14.5001C15.7761 14.2239 15.7761 13.7762 15.5 13.5001C15.2238 13.2239 14.7761 13.2239 14.5 13.5001Z" fill="#41F6D7"/>
</svg>
